<svg width="100" height="100" viewBox="0 0 344 344" fill="none" xmlns="http://www.w3.org/2000/svg">
<path fill-rule="evenodd" clip-rule="evenodd" d="M152.5 0.628001C110.585 6.913 79.012 22.643 50.741 51.325C25.749 76.68 8.83602 108.363 2.33602 142C-0.254982 155.407 -0.27998 189.798 2.29202 202C10.049 238.803 26.922 269.221 54.157 295.5C79.195 319.659 107.333 334.589 140.303 341.208C155.423 344.243 186.296 344.465 201.5 341.646C268.351 329.254 324.342 275.419 339.977 208.5C346.413 180.953 344.887 147.834 335.921 120.5C331.804 107.948 320.291 85.302 312.28 74C303.518 61.637 281.249 39.39 269 30.761C250.269 17.566 227.819 7.739 205.5 2.964C197.637 1.281 191.225 0.755002 175.5 0.501002C164.5 0.324002 154.15 0.381001 152.5 0.628001ZM155.616 4.028C133.039 6.609 116.322 11.652 96.7 21.801C51.004 45.436 17.782 88.704 7.08502 138.513C-0.760981 175.047 4.21202 211.789 21.628 245.951C30.519 263.391 39.34 275.402 53.979 290C79.967 315.915 106.328 330.316 140.5 337.263C149.784 339.151 154.699 339.499 172 339.491C189.658 339.483 194.094 339.153 204 337.108C245.105 328.621 281.506 305.111 306.892 270.652C318.908 254.341 324.873 243.148 330.966 225.476C338.148 204.648 339.427 196.566 339.427 172C339.427 147.959 338.297 140.526 331.452 119.509C314.824 68.462 267.493 23.328 215.684 9.114C198.453 4.387 172.039 2.15 155.616 4.028ZM160 8.66201C119.611 12.613 87.01 27.104 59.124 53.5C41.664 70.028 27.642 91.183 18.57 114.686C3.87102 152.763 4.84002 198.439 21.136 235.673C30.549 257.182 40.787 272.047 57.888 289.037C99.203 330.084 157.145 345.183 215.5 330.109C257.561 319.245 296.767 287.283 317.348 247.081C330.037 222.295 335.937 198.774 335.982 172.801C336.082 114.438 305.509 61.132 254.149 30.12C229.032 14.954 188.986 5.82701 160 8.66201ZM162.273 24.079C162.805 29.946 163.446 31.887 164.502 30.831C165.402 29.932 163.743 18 162.719 18C162.106 18 161.934 20.339 162.273 24.079ZM170 19C170 19.55 170.643 20 171.428 20C172.409 20 173.071 21.72 173.542 25.489C174.374 32.148 176 31.786 176 24.941C176 21.216 176.369 20 177.5 20C178.325 20 179 19.55 179 19C179 18.45 176.975 18 174.5 18C172.025 18 170 18.45 170 19ZM185 18.878C185 19.361 185.675 21.371 186.5 23.346C187.325 25.32 188 28.075 188 29.468C188 30.861 188.45 32 189 32C189.55 32 190 31.168 190 30.15C190 29.133 191.35 26.436 193 24.159C196.402 19.463 196.547 19 194.615 19C193.853 19 192.422 20.233 191.434 21.74L189.639 24.481L188.317 21.24C187.107 18.276 185 16.775 185 18.878ZM147.513 24.75C147.863 27.362 148.327 30.063 148.543 30.75C149.011 32.234 155.609 32.441 156.5 31C156.866 30.408 155.72 30 153.688 30C150.327 30 150.244 29.899 149.594 25C149.23 22.25 148.469 20 147.904 20C147.257 20 147.112 21.754 147.513 24.75ZM133.359 29.5C132.792 33.297 132.762 36 133.288 36C133.782 36 134.423 35.1 134.71 34C135.296 31.76 138.879 31.279 140.783 33.183C141.434 33.834 142.236 34.097 142.566 33.768C143.195 33.138 136.026 23 134.952 23C134.61 23 133.893 25.925 133.359 29.5ZM211.463 24.286C209.556 29.476 208.337 35.09 209.025 35.516C209.482 35.798 210.144 35.123 210.495 34.015C210.942 32.609 212.006 32 214.018 32C219.452 32 220.095 25.926 214.855 24.099C212.67 23.338 211.794 23.386 211.463 24.286ZM122.563 28.75C123.985 33.769 123.649 37.42 121.728 37.803C120.439 38.059 119.404 36.907 117.931 33.578C115.306 27.643 113.659 27.642 115.681 33.576C117.477 38.849 120.498 40.874 123.874 39.068C125.043 38.442 126 36.985 126 35.831C126 32.616 123.802 26 122.733 26C122.175 26 122.104 27.133 122.563 28.75ZM212.607 27.582C211.727 29.876 211.798 30 214 30C215.333 30 216 29.333 216 28C216 25.627 213.477 25.316 212.607 27.582ZM135 29C135 29.55 135.702 30 136.559 30C137.416 30 137.84 29.55 137.5 29C137.16 28.45 136.459 28 135.941 28C135.423 28 135 28.45 135 29ZM224.484 31.692C223.636 33.722 222.694 36.535 222.392 37.942L221.842 40.5L223.709 38.205C225.664 35.803 227 36.143 227 39.044C227 39.985 227.675 41.315 228.499 41.999C229.791 43.071 229.916 42.83 229.403 40.266C228.965 38.076 229.23 37.126 230.404 36.675C232.757 35.772 232.37 31.372 229.777 29.557C226.648 27.365 226.22 27.537 224.484 31.692ZM226.583 31.645C225.594 34.222 225.922 35 228 35C229.296 35 230 34.333 230 33.107C230 30.73 227.366 29.603 226.583 31.645ZM100 36C98.9 37.1 98 39.125 98 40.5C98 43.477 101.221 47 103.943 47C106.403 47 113.727 42.742 112.164 42.221C111.524 42.008 111 41.175 111 40.371C111 38.211 106.404 34 104.045 34C102.92 34 101.1 34.9 100 36ZM101.2 37.2C98.042 40.358 101.052 45.706 105.377 44.62C108.548 43.824 109.411 41.277 107.5 38.359C105.821 35.797 103.103 35.297 101.2 37.2ZM238.073 38.635C235.387 42.049 235.46 43.551 238.455 46.545C241.217 49.308 242.194 49.493 245.316 47.85C248.172 46.347 248.966 45.06 248.985 41.905C249.019 36.139 241.749 33.961 238.073 38.635ZM239.571 39.571C237.565 41.577 237.596 42.28 239.812 45.016C242.086 47.825 245.718 46.972 246.609 43.42C247.759 38.841 242.938 36.205 239.571 39.571ZM150 42.515C121.925 47.417 97.68 60.305 77.597 81.002C58.921 100.248 47.021 123.599 42.435 150C39.944 164.343 40.893 191.063 44.357 204.096C56.45 249.596 88.845 283.833 133 297.781C147.071 302.226 155.694 303.425 173 303.346C184.809 303.292 190.932 302.764 198.712 301.126C222.371 296.148 243.853 285.169 261.002 269.292C316.443 217.962 318.161 131.777 264.798 78.906C246.001 60.283 223.662 48.413 197.343 43.064C185.409 40.639 162.279 40.37 150 42.515ZM254.048 48.43C252.372 50.867 251 53.33 251 53.904C251 55.514 256.871 58.176 258.96 57.513C263.659 56.021 264.826 51.135 261.442 47.114C260.001 45.401 258.434 44 257.959 44C257.484 44 255.724 45.994 254.048 48.43ZM78.635 49.073C75.589 51.469 75.152 53.404 77.85 52.548C79.222 52.112 80.428 53.01 82.512 56.018C84.295 58.59 85.673 59.727 86.278 59.122C86.882 58.518 86.243 56.874 84.533 54.632C82.691 52.217 82.041 50.446 82.485 49.047C83.314 46.436 81.976 46.444 78.635 49.073ZM255.237 50.267C253.132 53.274 253.093 53.587 254.678 54.75C256.971 56.432 257.663 56.337 259.977 54.023C261.963 52.037 261.785 49.28 259.573 47.765C257.933 46.642 257.667 46.795 255.237 50.267ZM268.05 58.088C265.668 61.052 264.97 62.744 265.409 64.491C266.062 67.096 269.011 68.494 271.75 67.498C274.418 66.528 279.569 60 277.667 60C276.825 60 275.175 61.35 274 63C272.825 64.65 270.98 66 269.901 66C266.555 66 266.544 63.151 269.873 59.008C271.593 56.868 272.614 54.88 272.143 54.589C271.672 54.298 269.83 55.872 268.05 58.088ZM68.427 57.765C64.564 60.411 67.097 64.631 71.964 63.657C75.873 62.875 76.935 64.777 73.894 67.115C72.011 68.562 71.858 68.96 73.179 68.978C75.166 69.004 78 66.402 78 64.551C78 62.295 75.419 60.966 72.264 61.597C68.439 62.362 67.262 60.63 70.206 58.568C71.669 57.543 71.935 57.005 70.973 57.015C70.163 57.024 69.017 57.361 68.427 57.765ZM57.119 69.053L54.862 72.106L59.181 76.012C61.556 78.16 63.725 79.912 64 79.904C65.097 79.872 69.189 73.856 68.549 73.215C68.172 72.838 67.018 73.648 65.986 75.015C64.502 76.979 63.85 77.243 62.878 76.274C61.904 75.303 62.031 74.623 63.484 73.017C65.774 70.488 64.676 69.078 62.177 71.339C61.168 72.253 59.815 73 59.171 73C57.511 73 57.718 70.479 59.5 69C60.325 68.315 61 67.36 61 66.878C61 65.128 59.328 66.065 57.119 69.053ZM279 70C276.415 72.585 276.45 76.45 279.083 79.083C281.597 81.597 283.017 80.781 280.661 78.177C278.431 75.713 278.561 72.305 280.934 71.035C283.715 69.547 284.67 69.73 286.961 72.189C288.509 73.85 289 74.007 289 72.844C289 70.693 285.759 68 283.171 68C281.977 68 280.1 68.9 279 70ZM293.486 79.955C293.96 81.451 293.144 82.607 290.016 84.873C287.767 86.503 286.336 88.09 286.838 88.4C287.34 88.71 289.553 87.658 291.755 86.062C294.675 83.947 296.06 83.46 296.864 84.264C299.083 86.483 299.11 84.068 296.9 81.079C294.33 77.602 292.553 77.018 293.486 79.955ZM47.119 81.374L44.888 83.748L49.828 87.374C52.545 89.368 55.034 91 55.358 91C55.683 91 56.663 89.618 57.537 87.928C59.31 84.5 58.233 82 54.985 82C54.011 82 52.955 81.325 52.638 80.5C51.802 78.321 49.669 78.659 47.119 81.374ZM49.109 82.369C48.218 83.443 48.199 84.005 49.039 84.524C50.669 85.532 52.693 83.293 51.358 81.958C50.634 81.234 49.946 81.36 49.109 82.369ZM53.01 85.488C52.006 86.698 52.095 87.099 53.488 87.634C55.237 88.305 57.294 86.284 56.375 84.798C55.625 83.584 54.378 83.839 53.01 85.488ZM241.75 129.022C239.021 130.702 236.998 135.486 237.022 140.2C237.052 146.042 239.957 152.008 245.82 158.266C248.518 161.144 251.237 164.483 251.862 165.684C253.283 168.412 253.342 175.493 251.965 178.066C250.569 180.675 245.052 180.616 241.671 177.956C239.23 176.035 238.887 176.007 236.016 177.492C233.002 179.051 232.984 179.104 234.73 181.468C235.704 182.786 238.136 184.795 240.136 185.932C253.202 193.362 265.877 178.334 259.11 163.436C258.095 161.201 254.731 156.533 251.636 153.064C245.361 146.032 243.071 140.604 244.921 137.147C246.372 134.436 247.405 134.445 249.964 137.192C251.66 139.012 252.47 139.221 254.743 138.421C258.293 137.173 258.574 135.186 255.702 131.622C253.836 129.304 252.42 128.665 248.442 128.344C245.724 128.124 242.712 128.429 241.75 129.022ZM57 158V187H63.032C72.644 187 79.222 183.372 82.977 176C87.112 167.883 86.25 157.44 80.892 150.736L77.884 146.972L80.142 143.801C83.337 139.314 83.139 134.376 79.644 131.37C77.144 129.22 75.965 129 66.944 129H57V158ZM88 158V187H98.5H109V183.5V180H102H95V154.5V129H91.5H88V158ZM110.187 153.929C110.48 177.299 110.63 179.035 112.571 181.679C117.229 188.023 127.69 189.814 133.824 185.319C139.551 181.122 139.997 178.764 139.998 152.69L140 128.879L136.25 129.19L132.5 129.5L132 153.832C131.535 176.446 131.363 178.265 129.559 179.582C126.83 181.575 123.71 181.346 120.635 178.927L118 176.855V152.927V129H113.937H109.873L110.187 153.929ZM146 156.418C146 171.498 146.273 184.548 146.607 185.418C147.101 186.705 148.964 187 156.607 187H166V183.5V180H160H154V165.06V150.121L157.75 149.81C161.226 149.523 161.507 149.263 161.6 146.25C161.696 143.129 161.547 143 157.85 143C154.117 143 154 142.894 154 139.5V136H160H166V132.5V129H156H146V156.418ZM169.12 138.25C170.11 143.338 172.631 156.275 174.721 167L178.523 186.5L182.635 186.801C185.328 186.999 186.912 186.654 187.227 185.801C187.492 185.086 188.762 178.986 190.052 172.248C191.341 165.509 192.709 160.334 193.093 160.748C193.652 161.35 199 184.673 199 186.509C199 186.779 200.935 187 203.301 187H207.601L212.968 159.75C215.919 144.762 218.545 131.682 218.802 130.682C219.203 129.121 218.723 128.908 215.419 129.182L211.57 129.5L207.452 150L203.334 170.5L201.668 163C200.752 158.875 199.188 151.675 198.192 147C196.419 138.676 196.317 138.494 193.276 138.193C189.656 137.835 190.133 136.693 186.458 154.5C184.982 161.65 183.46 167.842 183.077 168.261C182.693 168.679 180.668 160.016 178.576 149.011L174.774 129H171.047H167.321L169.12 138.25ZM224 158V187H227.5H231V158V129H227.5H224V158ZM264 158V187H267.5H271V168.5V150H275.5H280V168.5V187H283.5H287V158V129H283.546H280.091L279.796 135.75L279.5 142.5H275.5H271.5L271.204 135.75L270.909 129H267.454H264V158ZM244.206 131.026C241.154 132.28 238.69 138.292 239.564 142.354C240.604 147.189 242.639 150.58 248.15 156.666C255.846 165.164 257.919 172.389 254.537 178.928C252.122 183.598 246.165 184.49 241.564 180.871C239.654 179.369 238.545 179.055 237.795 179.805C237.046 180.554 237.729 181.474 240.116 182.93C241.977 184.064 244.175 185.046 245 185.111C254.116 185.834 258.576 180.643 257.82 170.191C257.45 165.068 256.836 163.397 254.175 160.265C245.053 149.53 242.746 145.923 242.263 141.642C241.624 135.969 243.221 133 246.913 133C248.476 133 250.315 133.675 251 134.5C252.336 136.11 255 136.546 255 135.155C255 132.163 247.978 129.477 244.206 131.026ZM59.451 132.267C59.184 132.964 59.085 145.002 59.232 159.017L59.5 184.5L64.882 184.207C67.843 184.046 71.443 183.301 72.882 182.552C84.441 176.537 86.562 157.736 76.569 149.875L73.958 147.822L76.979 143.714C83.226 135.22 79.716 131 66.404 131C62.106 131 59.774 131.425 59.451 132.267ZM90.732 132.017C90.31 132.852 90.085 145.002 90.232 159.017L90.5 184.5L98.25 184.792C103.145 184.977 106 184.7 106 184.042C106 183.467 103.869 182.994 101.25 182.986C91.239 182.958 92.07 185.311 91.767 156.138C91.62 142.037 91.155 131.183 90.732 132.017ZM113 154.05C113 179.336 113.534 182.105 118.798 184.12C125.725 186.772 133.488 184.614 135.876 179.372C136.874 177.182 137.334 158.744 137.027 133.25C137.012 132.012 136.55 131 136 131C135.363 131 135 139.145 135 153.435C135 165.876 134.557 177.034 134.006 178.483C132.779 181.713 127.251 184.2 123.132 183.376C121.487 183.047 119.096 181.668 117.82 180.311C115.549 177.896 115.494 177.344 115.199 154.421C115.02 140.531 114.511 131 113.949 131C113.378 131 113 140.182 113 154.05ZM149 158V185H156C164.402 185 165.41 183.226 157.25 182.8L151.5 182.5V165V147.5L154.833 147.334C159.774 147.087 160.007 146 155.119 146H150.905L151.202 139.75L151.5 133.5L157.25 133.2C165.41 132.774 164.402 131 156 131H149V158ZM171 132.496C171 134.394 179.629 179.955 180.612 183.25C181.032 184.655 185 185.927 185 184.656C185 183.788 191.098 154.288 191.618 152.638C192.855 148.718 194.812 153.649 197.894 168.454C202.965 192.805 204.02 191.941 210.748 157.928C215.491 133.948 216.215 128.417 214.175 131.716C213.781 132.354 211.498 143.028 209.1 155.437C206.079 171.076 204.342 178 203.439 178C202.14 178 201.658 176.184 196.679 152.562C194.481 142.136 192.764 138.756 191.667 142.695C191.391 143.688 189.949 150.35 188.463 157.5C184.572 176.221 184.066 178 182.634 178C181.83 178 180.89 175.464 180.133 171.25C176.135 148.995 172.69 132.375 171.904 131.55C171.349 130.967 171 131.332 171 132.496ZM226.515 132.1C225.51 134.718 226.441 183.987 227.5 184.251C228.858 184.589 229.398 132.998 228.05 131.65C227.404 131.004 226.876 131.159 226.515 132.1ZM266.75 131.577C265.586 132.751 265.827 183.775 267 184.5C267.653 184.904 268 178.51 268 166.059V147H274.978H281.956L282.228 165.75C282.4 177.616 282.867 184.408 283.5 184.25C284.135 184.091 284.5 174.5 284.5 158C284.5 141.5 284.135 131.909 283.5 131.75C282.928 131.607 282.373 134.391 282.204 138.25L281.909 145H274.998H268.088L267.794 137.911C267.632 134.011 267.163 131.161 266.75 131.577ZM62.435 134.308C62.159 135.028 62.061 140.927 62.217 147.417L62.5 159.218L69.673 150.341C78.055 139.967 79.231 136.976 75.858 134.613C72.989 132.603 63.175 132.381 62.435 134.308ZM64 144.122C64 153.413 64.118 153.421 70.925 144.598C76.589 137.255 76.381 136 69.5 136H64V144.122ZM67.215 155.585L61.929 161.945L62.215 172.223L62.5 182.5L65.964 182.217C70.587 181.84 74.981 179.148 77.831 174.946C79.881 171.923 80.126 170.55 79.827 163.76C79.504 156.425 79.303 155.842 75.993 152.623L72.5 149.226L67.215 155.585ZM68.25 158.502C64.035 163.839 64 163.95 64 172.067V180.25L67.202 179.61C75.978 177.854 80.804 165.696 76.16 157.038C75.148 155.151 73.91 153.497 73.41 153.363C72.909 153.23 70.588 155.542 68.25 158.502ZM14.75 168.08C12.74 169.251 12.401 174.001 14.2 175.8C14.86 176.46 16.671 177 18.225 177C22.023 177 23.798 172.867 21.504 169.365C19.854 166.848 17.601 166.419 14.75 168.08ZM27.75 168.08C25.74 169.251 25.401 174.001 27.2 175.8C27.86 176.46 29.67 177 31.221 177C35.193 177 36.962 173.117 34.619 169.541C32.863 166.861 30.65 166.391 27.75 168.08ZM310.75 168.08C308.62 169.321 308.424 174.277 310.44 175.95C314.995 179.731 321.481 173.399 317.527 169.03C315.513 166.805 313.439 166.514 310.75 168.08ZM323.75 168.08C321.62 169.321 321.424 174.277 323.44 175.95C327.995 179.731 334.481 173.399 330.527 169.03C328.513 166.805 326.439 166.514 323.75 168.08ZM95.4 294.765C93.099 296.301 91.888 299.923 92.988 301.977C94.31 304.449 97.666 306.35 98.454 305.075C98.77 304.563 98.164 303.869 97.107 303.534C94.617 302.744 93.738 300.359 95.039 297.928C96.125 295.897 100.436 295.278 101.5 297C101.84 297.55 102.611 298 103.214 298C103.817 298 103.495 297.1 102.5 296C100.672 293.98 97.422 293.415 95.4 294.765ZM241.655 295.829C238.174 299.675 240.969 306 246.15 306C248.682 306 252.16 301.109 251.417 298.593C250.073 294.047 244.656 292.513 241.655 295.829ZM242.667 296.667C241.58 297.753 241.906 301.506 243.2 302.8C246.387 305.987 251.161 302.037 249 298C247.975 296.084 244.071 295.262 242.667 296.667ZM105.579 304.844L103.124 309.689L106.562 311.328C110.37 313.144 111.245 312.071 107.813 309.792L105.627 308.34L107.813 304.802C110.244 300.869 110.462 300 109.017 300C108.476 300 106.929 302.18 105.579 304.844ZM229.655 302.829C227.469 305.244 227.552 309.284 229.829 311.345C232.285 313.568 235.299 313.432 237.5 311C239.555 308.729 238.917 308.41 235.983 310.243C233.319 311.907 230.606 310.193 230.176 306.575C229.931 304.507 230.352 303.721 231.926 303.309C233.067 303.011 234 302.369 234 301.883C234 300.353 231.379 300.924 229.655 302.829ZM117.333 309.615C115.798 311.957 115.773 312.506 117.091 314.865C119.955 319.993 128 318.249 128 312.5C128 306.913 120.442 304.869 117.333 309.615ZM119.655 309.829C117.45 312.265 117.569 313.585 120.155 315.396C122.898 317.317 126 315.868 126 312.665C126 308.266 122.489 306.697 119.655 309.829ZM208 311.5C207.034 312.664 207.022 313.322 207.947 314.436C208.79 315.452 208.84 316.431 208.116 317.783C207.397 319.128 207.435 320.035 208.247 320.847C209.672 322.272 213.66 322.359 214.51 320.984C214.856 320.425 215.557 320.226 216.069 320.543C216.581 320.859 217 320.668 217 320.118C217 319.568 216.532 318.829 215.959 318.475C215.387 318.121 215.192 316.97 215.527 315.916C215.867 314.845 215.664 314 215.067 314C214.48 314 214 314.685 214 315.523C214 316.856 213.689 316.842 211.5 315.408C208.697 313.571 208.236 312 210.5 312C211.325 312 212 311.55 212 311C212 309.481 209.406 309.805 208 311.5ZM134.272 312.408C135.715 313.503 135.854 314.253 135.022 316.442C133.765 319.748 133.686 323.312 134.887 322.57C135.374 322.269 136.079 320.392 136.453 318.4C136.9 316.015 137.792 314.606 139.066 314.272C141.944 313.52 141.409 312.332 137.875 311.625C133.247 310.699 132.293 310.907 134.272 312.408ZM145.621 315.75C144.19 320.62 143.844 325 144.889 325C145.5 325 146 324.07 146 322.934C146 321.269 146.535 320.929 148.75 321.184C150.808 321.42 151.508 322.053 151.53 323.697C151.57 326.612 152.685 327.618 153.336 325.325C154.717 320.459 155.115 315 154.088 315C153.49 315 153 315.873 153 316.941C153 319.41 151.932 320.056 149.084 319.312C147.348 318.858 146.926 318.17 147.272 316.36C147.791 313.642 146.392 313.125 145.621 315.75ZM185.413 317.493C182.061 322.608 186.928 328.721 192.376 326.238C194.244 325.387 194.645 324.591 194.249 322.52C193.906 320.729 193.278 320.063 192.291 320.442C191.491 320.749 190.562 321 190.227 321C189.892 321 190.491 321.643 191.559 322.429C193.45 323.821 193.452 323.876 191.614 324.588C187.869 326.039 184.497 321.516 187.04 318.452C187.703 317.653 189.315 317 190.622 317C191.93 317 193 316.55 193 316C193 315.45 191.66 315 190.023 315C187.953 315 186.548 315.76 185.413 317.493ZM160.63 318.25C159.68 321.795 159.9 327 161 327C161.55 327 162 325.237 162 323.082C162 320.927 162.273 318.452 162.607 317.582C162.941 316.712 162.768 316 162.224 316C161.679 316 160.962 317.012 160.63 318.25ZM168 321.792C168 328.493 169.68 330.393 170.19 324.267L170.5 320.535L174.75 324.384L179 328.233V322.675C179 319.619 178.55 316.84 178 316.5C177.393 316.125 177 317.559 177 320.149V324.416L172.5 320L168 315.584V321.792ZM209.446 318.087C208.416 319.755 210.733 321.667 212.113 320.287C213.267 319.133 212.545 317 211 317C210.515 317 209.816 317.489 209.446 318.087Z" fill="#024CA8"/>
<rect x="137" y="207" width="71" height="6" rx="3" fill="black"/>
<path d="M83.128 250C83.0347 250 82.9507 249.972 82.876 249.916C82.82 249.841 82.792 249.757 82.792 249.664V230.736C82.792 230.643 82.82 230.568 82.876 230.512C82.9507 230.437 83.0347 230.4 83.128 230.4H88.924C90.7347 230.4 92.1813 230.904 93.264 231.912C94.3653 232.92 94.916 234.264 94.916 235.944V244.456C94.916 246.136 94.3653 247.48 93.264 248.488C92.1813 249.496 90.7347 250 88.924 250H83.128ZM86.04 247.06C86.04 247.153 86.0867 247.2 86.18 247.2L88.952 247.172C89.7547 247.172 90.3987 246.901 90.884 246.36C91.3693 245.8 91.6307 245.044 91.668 244.092V236.308C91.668 235.356 91.416 234.6 90.912 234.04C90.4267 233.48 89.7733 233.2 88.952 233.2H86.18C86.0867 233.2 86.04 233.247 86.04 233.34V247.06ZM110.903 232.864C110.903 232.957 110.866 233.041 110.791 233.116C110.735 233.172 110.66 233.2 110.567 233.2H102.783C102.69 233.2 102.643 233.247 102.643 233.34V238.604C102.643 238.697 102.69 238.744 102.783 238.744H107.767C107.86 238.744 107.935 238.781 107.991 238.856C108.066 238.912 108.103 238.987 108.103 239.08V241.208C108.103 241.301 108.066 241.385 107.991 241.46C107.935 241.516 107.86 241.544 107.767 241.544H102.783C102.69 241.544 102.643 241.591 102.643 241.684V247.06C102.643 247.153 102.69 247.2 102.783 247.2H110.567C110.66 247.2 110.735 247.237 110.791 247.312C110.866 247.368 110.903 247.443 110.903 247.536V249.664C110.903 249.757 110.866 249.841 110.791 249.916C110.735 249.972 110.66 250 110.567 250H99.7311C99.6378 250 99.5538 249.972 99.4791 249.916C99.4231 249.841 99.3951 249.757 99.3951 249.664V230.736C99.3951 230.643 99.4231 230.568 99.4791 230.512C99.5538 230.437 99.6378 230.4 99.7311 230.4H110.567C110.66 230.4 110.735 230.437 110.791 230.512C110.866 230.568 110.903 230.643 110.903 230.736V232.864ZM124.811 230.736C124.811 230.643 124.839 230.568 124.895 230.512C124.969 230.437 125.053 230.4 125.147 230.4H127.723C127.816 230.4 127.891 230.437 127.947 230.512C128.021 230.568 128.059 230.643 128.059 230.736V249.664C128.059 249.757 128.021 249.841 127.947 249.916C127.891 249.972 127.816 250 127.723 250H125.007C124.839 250 124.708 249.916 124.615 249.748L118.511 237.204C118.473 237.148 118.436 237.129 118.399 237.148C118.361 237.148 118.343 237.185 118.343 237.26L118.371 249.664C118.371 249.757 118.333 249.841 118.259 249.916C118.203 249.972 118.128 250 118.035 250H115.459C115.365 250 115.281 249.972 115.207 249.916C115.151 249.841 115.123 249.757 115.123 249.664V230.736C115.123 230.643 115.151 230.568 115.207 230.512C115.281 230.437 115.365 230.4 115.459 230.4H118.147C118.333 230.4 118.464 230.484 118.539 230.652L124.671 243.252C124.708 243.308 124.745 243.336 124.783 243.336C124.82 243.317 124.839 243.271 124.839 243.196L124.811 230.736ZM133.348 250C133.254 250 133.17 249.972 133.096 249.916C133.04 249.841 133.012 249.757 133.012 249.664V230.736C133.012 230.643 133.04 230.568 133.096 230.512C133.17 230.437 133.254 230.4 133.348 230.4H135.924C136.017 230.4 136.092 230.437 136.148 230.512C136.222 230.568 136.26 230.643 136.26 230.736V249.664C136.26 249.757 136.222 249.841 136.148 249.916C136.092 249.972 136.017 250 135.924 250H133.348ZM151.916 230.624C151.991 230.475 152.121 230.4 152.308 230.4H154.912C155.005 230.4 155.08 230.437 155.136 230.512C155.211 230.568 155.248 230.643 155.248 230.736V249.664C155.248 249.757 155.211 249.841 155.136 249.916C155.08 249.972 155.005 250 154.912 250H152.336C152.243 250 152.159 249.972 152.084 249.916C152.028 249.841 152 249.757 152 249.664V236.392C152 236.317 151.981 236.28 151.944 236.28C151.907 236.261 151.869 236.28 151.832 236.336L148.864 241.236C148.789 241.385 148.659 241.46 148.472 241.46H147.94C147.753 241.46 147.623 241.385 147.548 241.236L144.58 236.364C144.543 236.308 144.505 236.289 144.468 236.308C144.431 236.308 144.412 236.345 144.412 236.42V249.664C144.412 249.757 144.375 249.841 144.3 249.916C144.244 249.972 144.169 250 144.076 250H141.5C141.407 250 141.323 249.972 141.248 249.916C141.192 249.841 141.164 249.757 141.164 249.664V230.736C141.164 230.643 141.192 230.568 141.248 230.512C141.323 230.437 141.407 230.4 141.5 230.4H144.076C144.263 230.4 144.393 230.475 144.468 230.624L148.136 236.476C148.192 236.588 148.248 236.588 148.304 236.476L151.916 230.624ZM181.796 249.58C181.852 249.655 181.88 249.729 181.88 249.804C181.88 249.935 181.787 250 181.6 250H178.744C178.576 250 178.436 249.935 178.324 249.804L177.288 248.572C177.232 248.497 177.167 248.488 177.092 248.544C175.543 249.683 173.835 250.252 171.968 250.252C170.307 250.252 168.963 249.841 167.936 249.02C166.928 248.199 166.424 247.004 166.424 245.436C166.424 244.185 166.732 243.121 167.348 242.244C167.983 241.367 168.842 240.555 169.924 239.808C169.98 239.752 169.99 239.687 169.952 239.612C169.019 238.38 168.403 237.456 168.104 236.84C167.824 236.224 167.684 235.561 167.684 234.852C167.684 233.471 168.142 232.351 169.056 231.492C169.99 230.615 171.212 230.176 172.724 230.176C173.732 230.176 174.638 230.381 175.44 230.792C176.243 231.184 176.868 231.744 177.316 232.472C177.764 233.2 177.988 234.04 177.988 234.992C177.988 236.149 177.68 237.148 177.064 237.988C176.448 238.828 175.599 239.612 174.516 240.34C174.46 240.396 174.451 240.461 174.488 240.536C175.104 241.227 175.898 242.179 176.868 243.392L177.344 244.008C177.419 244.083 177.494 244.092 177.568 244.036C178.147 243.252 178.632 242.524 179.024 241.852C179.155 241.665 179.304 241.628 179.472 241.74L181.376 242.832C181.563 242.963 181.6 243.112 181.488 243.28C180.835 244.381 180.135 245.408 179.388 246.36C179.332 246.416 179.332 246.472 179.388 246.528L181.796 249.58ZM172.836 233.144C172.258 233.144 171.791 233.321 171.436 233.676C171.1 234.031 170.932 234.497 170.932 235.076C170.932 235.431 171.026 235.795 171.212 236.168C171.399 236.541 171.81 237.139 172.444 237.96C172.5 238.035 172.566 238.044 172.64 237.988C173.312 237.521 173.826 237.055 174.18 236.588C174.554 236.121 174.74 235.599 174.74 235.02C174.74 234.46 174.563 234.012 174.208 233.676C173.854 233.321 173.396 233.144 172.836 233.144ZM172.164 247.452C173.172 247.452 174.199 247.069 175.244 246.304C175.338 246.248 175.347 246.183 175.272 246.108L173.872 244.428L173.452 243.924L172.024 242.188C171.968 242.113 171.903 242.104 171.828 242.16C171.156 242.645 170.634 243.14 170.26 243.644C169.887 244.129 169.7 244.68 169.7 245.296C169.7 245.949 169.915 246.472 170.344 246.864C170.792 247.256 171.399 247.452 172.164 247.452ZM198.091 250.224C196.281 250.224 194.834 249.711 193.751 248.684C192.669 247.657 192.127 246.295 192.127 244.596V242.636C192.127 242.543 192.155 242.468 192.211 242.412C192.286 242.337 192.37 242.3 192.463 242.3H195.039C195.133 242.3 195.207 242.337 195.263 242.412C195.338 242.468 195.375 242.543 195.375 242.636V244.624C195.375 245.464 195.618 246.145 196.103 246.668C196.607 247.172 197.27 247.424 198.091 247.424C198.913 247.424 199.585 247.172 200.107 246.668C200.63 246.145 200.891 245.464 200.891 244.624V230.736C200.891 230.643 200.919 230.568 200.975 230.512C201.05 230.437 201.134 230.4 201.227 230.4H203.775C203.869 230.4 203.943 230.437 203.999 230.512C204.074 230.568 204.111 230.643 204.111 230.736V244.596C204.111 245.716 203.859 246.705 203.355 247.564C202.851 248.404 202.142 249.057 201.227 249.524C200.313 249.991 199.267 250.224 198.091 250.224ZM220.486 232.864C220.486 232.957 220.449 233.041 220.374 233.116C220.318 233.172 220.243 233.2 220.15 233.2H212.366C212.273 233.2 212.226 233.247 212.226 233.34V238.604C212.226 238.697 212.273 238.744 212.366 238.744H217.35C217.443 238.744 217.518 238.781 217.574 238.856C217.649 238.912 217.686 238.987 217.686 239.08V241.208C217.686 241.301 217.649 241.385 217.574 241.46C217.518 241.516 217.443 241.544 217.35 241.544H212.366C212.273 241.544 212.226 241.591 212.226 241.684V247.06C212.226 247.153 212.273 247.2 212.366 247.2H220.15C220.243 247.2 220.318 247.237 220.374 247.312C220.449 247.368 220.486 247.443 220.486 247.536V249.664C220.486 249.757 220.449 249.841 220.374 249.916C220.318 249.972 220.243 250 220.15 250H209.314C209.221 250 209.137 249.972 209.062 249.916C209.006 249.841 208.978 249.757 208.978 249.664V230.736C208.978 230.643 209.006 230.568 209.062 230.512C209.137 230.437 209.221 230.4 209.314 230.4H220.15C220.243 230.4 220.318 230.437 220.374 230.512C220.449 230.568 220.486 230.643 220.486 230.736V232.864ZM235.032 250C234.826 250 234.696 249.907 234.64 249.72L233.912 246.724C233.893 246.649 233.846 246.612 233.772 246.612H228.004C227.929 246.612 227.882 246.649 227.864 246.724L227.164 249.72C227.108 249.907 226.977 250 226.772 250H224.111C223.869 250 223.776 249.879 223.832 249.636L228.928 230.68C228.984 230.493 229.114 230.4 229.32 230.4H232.512C232.717 230.4 232.848 230.493 232.904 230.68L238 249.636L238.028 249.748C238.028 249.916 237.925 250 237.72 250H235.032ZM228.536 243.896C228.517 243.952 228.526 243.999 228.564 244.036C228.601 244.055 228.638 244.064 228.676 244.064H233.1C233.137 244.064 233.174 244.055 233.212 244.036C233.249 243.999 233.258 243.952 233.24 243.896L230.944 234.712C230.925 234.656 230.897 234.628 230.86 234.628C230.822 234.628 230.794 234.656 230.776 234.712L228.536 243.896ZM251.489 230.736C251.489 230.643 251.517 230.568 251.573 230.512C251.647 230.437 251.731 230.4 251.825 230.4H254.401C254.494 230.4 254.569 230.437 254.625 230.512C254.699 230.568 254.737 230.643 254.737 230.736V249.664C254.737 249.757 254.699 249.841 254.625 249.916C254.569 249.972 254.494 250 254.401 250H251.685C251.517 250 251.386 249.916 251.293 249.748L245.189 237.204C245.151 237.148 245.114 237.129 245.077 237.148C245.039 237.148 245.021 237.185 245.021 237.26L245.049 249.664C245.049 249.757 245.011 249.841 244.937 249.916C244.881 249.972 244.806 250 244.713 250H242.137C242.043 250 241.959 249.972 241.885 249.916C241.829 249.841 241.801 249.757 241.801 249.664V230.736C241.801 230.643 241.829 230.568 241.885 230.512C241.959 230.437 242.043 230.4 242.137 230.4H244.825C245.011 230.4 245.142 230.484 245.217 230.652L251.349 243.252C251.386 243.308 251.423 243.336 251.461 243.336C251.498 243.317 251.517 243.271 251.517 243.196L251.489 230.736ZM265.15 250.224C263.918 250.224 262.835 250.009 261.902 249.58C260.968 249.132 260.24 248.507 259.718 247.704C259.214 246.883 258.962 245.94 258.962 244.876V244.148C258.962 244.055 258.99 243.98 259.046 243.924C259.12 243.849 259.204 243.812 259.298 243.812H261.818C261.911 243.812 261.986 243.849 262.042 243.924C262.116 243.98 262.154 244.055 262.154 244.148V244.708C262.154 245.511 262.434 246.164 262.994 246.668C263.554 247.172 264.31 247.424 265.262 247.424C266.139 247.424 266.811 247.2 267.278 246.752C267.744 246.304 267.978 245.716 267.978 244.988C267.978 244.484 267.847 244.055 267.586 243.7C267.324 243.327 266.951 242.991 266.466 242.692C265.999 242.375 265.271 241.955 264.282 241.432C263.143 240.835 262.228 240.303 261.538 239.836C260.847 239.369 260.259 238.772 259.774 238.044C259.307 237.316 259.074 236.429 259.074 235.384C259.074 233.779 259.606 232.509 260.67 231.576C261.752 230.643 263.171 230.176 264.926 230.176C266.139 230.176 267.212 230.409 268.146 230.876C269.079 231.324 269.798 231.968 270.302 232.808C270.806 233.648 271.058 234.609 271.058 235.692V236.28C271.058 236.373 271.02 236.457 270.946 236.532C270.89 236.588 270.815 236.616 270.722 236.616H268.202C268.108 236.616 268.024 236.588 267.95 236.532C267.894 236.457 267.866 236.373 267.866 236.28V235.748C267.866 234.945 267.595 234.283 267.054 233.76C266.512 233.237 265.784 232.976 264.87 232.976C264.067 232.976 263.432 233.191 262.966 233.62C262.499 234.031 262.266 234.609 262.266 235.356C262.266 235.86 262.387 236.289 262.63 236.644C262.872 236.999 263.236 237.335 263.722 237.652C264.226 237.969 264.982 238.38 265.99 238.884C267.334 239.649 268.323 240.247 268.958 240.676C269.592 241.105 270.124 241.665 270.554 242.356C271.002 243.028 271.226 243.859 271.226 244.848C271.226 246.491 270.675 247.797 269.574 248.768C268.472 249.739 266.998 250.224 265.15 250.224Z" fill="black"/>
<path d="M135.856 275.648C136.064 275.648 136.224 275.744 136.336 275.936C136.464 276.128 136.528 276.392 136.528 276.728C136.528 277.368 136.376 277.864 136.072 278.216C135.48 278.936 134.64 279.6 133.552 280.208C132.48 280.816 131.328 281.12 130.096 281.12C128.416 281.12 127.112 280.664 126.184 279.752C125.256 278.84 124.792 277.592 124.792 276.008C124.792 274.904 125.024 273.88 125.488 272.936C125.952 271.976 126.592 271.216 127.408 270.656C128.24 270.096 129.176 269.816 130.216 269.816C131.144 269.816 131.888 270.096 132.448 270.656C133.008 271.2 133.288 271.944 133.288 272.888C133.288 273.992 132.888 274.944 132.088 275.744C131.304 276.528 129.968 277.152 128.08 277.616C128.48 278.352 129.24 278.72 130.36 278.72C131.08 278.72 131.896 278.472 132.808 277.976C133.736 277.464 134.536 276.8 135.208 275.984C135.4 275.76 135.616 275.648 135.856 275.648ZM129.808 272.168C129.216 272.168 128.712 272.512 128.296 273.2C127.896 273.888 127.696 274.72 127.696 275.696V275.744C128.64 275.52 129.384 275.184 129.928 274.736C130.472 274.288 130.744 273.768 130.744 273.176C130.744 272.872 130.656 272.632 130.48 272.456C130.32 272.264 130.096 272.168 129.808 272.168ZM139.998 281.648C139.166 281.648 138.526 281.456 138.078 281.072C137.646 280.688 137.43 280.256 137.43 279.776C137.43 279.36 137.582 279 137.886 278.696C138.19 278.392 138.638 278.24 139.23 278.24C139.438 278.24 139.678 278.264 139.95 278.312C140.238 278.344 140.454 278.368 140.598 278.384C140.582 277.968 140.486 277.576 140.31 277.208C140.15 276.84 139.942 276.488 139.686 276.152C139.43 275.8 139.19 275.496 138.966 275.24C138.47 276.184 137.974 276.968 137.478 277.592C136.998 278.216 136.47 278.808 135.894 279.368C135.606 279.656 135.302 279.8 134.982 279.8C134.726 279.8 134.518 279.712 134.358 279.536C134.198 279.344 134.118 279.112 134.118 278.84C134.118 278.52 134.23 278.224 134.454 277.952L134.766 277.568C135.646 276.48 136.31 275.584 136.758 274.88C137.03 274.416 137.35 273.8 137.718 273.032C138.086 272.248 138.446 271.44 138.798 270.608C139.102 269.904 139.734 269.552 140.694 269.552C141.142 269.552 141.454 269.592 141.63 269.672C141.806 269.752 141.894 269.88 141.894 270.056C141.894 270.152 141.862 270.304 141.798 270.512C141.734 270.72 141.646 270.928 141.534 271.136C141.246 271.712 141.102 272.2 141.102 272.6C141.102 272.84 141.182 273.104 141.342 273.392C141.518 273.68 141.782 274.04 142.134 274.472C142.646 275.144 143.03 275.72 143.286 276.2C143.558 276.664 143.694 277.176 143.694 277.736C143.694 277.896 143.678 278.12 143.646 278.408C144.43 278.104 145.35 277.296 146.406 275.984C146.598 275.76 146.814 275.648 147.054 275.648C147.262 275.648 147.422 275.744 147.534 275.936C147.662 276.128 147.726 276.392 147.726 276.728C147.726 277.336 147.574 277.832 147.27 278.216C146.47 279.208 145.702 279.888 144.966 280.256C144.246 280.608 143.35 280.8 142.278 280.832C141.638 281.376 140.878 281.648 139.998 281.648ZM150.696 272.096C150.664 272.896 150.648 273.52 150.648 273.968C150.648 275.12 150.704 276.024 150.816 276.68C150.944 277.32 151.144 277.784 151.416 278.072C151.704 278.344 152.096 278.48 152.592 278.48C152.848 278.48 153.152 278.4 153.504 278.24C153.856 278.08 154.176 277.872 154.464 277.616C154.64 277.456 154.816 277.376 154.992 277.376C155.184 277.376 155.336 277.488 155.448 277.712C155.576 277.92 155.64 278.176 155.64 278.48C155.64 278.784 155.576 279.08 155.448 279.368C155.336 279.656 155.16 279.896 154.92 280.088C154.088 280.776 153.144 281.12 152.088 281.12C150.568 281.12 149.456 280.488 148.752 279.224C148.048 277.944 147.696 276.28 147.696 274.232C147.696 273.528 147.72 272.816 147.768 272.096H146.832C146.352 272.096 146.024 272.008 145.848 271.832C145.688 271.656 145.608 271.376 145.608 270.992C145.608 270.096 145.968 269.648 146.688 269.648H148.056C148.328 267.888 148.744 266.28 149.304 264.824C149.864 263.368 150.536 262.208 151.32 261.344C152.12 260.48 152.976 260.048 153.888 260.048C154.56 260.048 155.088 260.344 155.472 260.936C155.856 261.528 156.048 262.272 156.048 263.168C156.048 265.648 155.008 267.808 152.928 269.648H155.616C155.872 269.648 156.056 269.704 156.168 269.816C156.28 269.928 156.336 270.136 156.336 270.44C156.336 271.544 155.432 272.096 153.624 272.096H150.696ZM153.24 262.352C153 262.352 152.728 262.656 152.424 263.264C152.136 263.856 151.856 264.688 151.584 265.76C151.328 266.816 151.112 267.992 150.936 269.288C151.88 268.472 152.584 267.56 153.048 266.552C153.528 265.528 153.768 264.6 153.768 263.768C153.768 262.824 153.592 262.352 153.24 262.352ZM175.194 278.312C175.53 278.312 175.786 278.424 175.962 278.648C176.138 278.872 176.226 279.152 176.226 279.488C176.226 279.904 176.09 280.28 175.818 280.616C175.562 280.936 175.21 281.096 174.762 281.096C173.994 281.096 172.85 281.04 171.33 280.928C171.026 280.912 170.466 280.88 169.65 280.832C168.834 280.784 168.194 280.76 167.73 280.76C167.522 280.76 167.218 280.832 166.818 280.976C166.738 280.992 166.578 281.032 166.338 281.096C166.114 281.16 165.922 281.192 165.762 281.192C165.506 281.192 165.29 281.08 165.114 280.856C164.954 280.616 164.874 280.264 164.874 279.8C164.874 279.288 164.994 278.896 165.234 278.624C165.474 278.336 165.85 278.08 166.362 277.856C167.45 277.376 168.474 276.768 169.434 276.032C170.41 275.28 171.186 274.472 171.762 273.608C172.354 272.744 172.65 271.92 172.65 271.136C172.65 270.512 172.506 270.056 172.218 269.768C171.946 269.464 171.506 269.312 170.898 269.312C170.194 269.312 169.626 269.504 169.194 269.888C168.778 270.272 168.57 270.808 168.57 271.496C168.57 272.44 168.098 272.912 167.154 272.912C166.706 272.912 166.354 272.784 166.098 272.528C165.858 272.272 165.738 271.904 165.738 271.424C165.738 270.624 165.946 269.888 166.362 269.216C166.778 268.544 167.402 268.008 168.234 267.608C169.066 267.192 170.082 266.984 171.282 266.984C172.722 266.984 173.85 267.344 174.666 268.064C175.482 268.784 175.89 269.784 175.89 271.064C175.89 272.28 175.354 273.552 174.282 274.88C173.226 276.208 171.698 277.384 169.698 278.408L175.194 278.312ZM184.303 281.12C182.735 281.12 181.519 280.608 180.655 279.584C179.807 278.56 179.383 277.096 179.383 275.192C179.383 273.576 179.631 272.152 180.127 270.92C180.639 269.672 181.343 268.704 182.239 268.016C183.151 267.328 184.207 266.984 185.407 266.984C186.975 266.984 188.183 267.496 189.031 268.52C189.895 269.544 190.327 271.008 190.327 272.912C190.327 274.528 190.071 275.96 189.559 277.208C189.063 278.44 188.359 279.4 187.447 280.088C186.551 280.776 185.503 281.12 184.303 281.12ZM184.543 278.432C185.407 278.432 186.087 277.952 186.583 276.992C187.079 276.032 187.327 274.728 187.327 273.08C187.327 271.976 187.143 271.136 186.775 270.56C186.407 269.968 185.871 269.672 185.167 269.672C184.303 269.672 183.623 270.16 183.127 271.136C182.631 272.096 182.383 273.4 182.383 275.048C182.383 276.152 182.559 276.992 182.911 277.568C183.279 278.144 183.823 278.432 184.543 278.432ZM203.575 278.312C203.911 278.312 204.167 278.424 204.343 278.648C204.519 278.872 204.607 279.152 204.607 279.488C204.607 279.904 204.471 280.28 204.199 280.616C203.943 280.936 203.591 281.096 203.143 281.096C202.375 281.096 201.231 281.04 199.711 280.928C199.407 280.912 198.847 280.88 198.031 280.832C197.215 280.784 196.575 280.76 196.111 280.76C195.903 280.76 195.599 280.832 195.199 280.976C195.119 280.992 194.959 281.032 194.719 281.096C194.495 281.16 194.303 281.192 194.143 281.192C193.887 281.192 193.671 281.08 193.495 280.856C193.335 280.616 193.255 280.264 193.255 279.8C193.255 279.288 193.375 278.896 193.615 278.624C193.855 278.336 194.231 278.08 194.743 277.856C195.831 277.376 196.855 276.768 197.815 276.032C198.791 275.28 199.567 274.472 200.143 273.608C200.735 272.744 201.031 271.92 201.031 271.136C201.031 270.512 200.887 270.056 200.599 269.768C200.327 269.464 199.887 269.312 199.279 269.312C198.575 269.312 198.007 269.504 197.575 269.888C197.159 270.272 196.951 270.808 196.951 271.496C196.951 272.44 196.479 272.912 195.535 272.912C195.087 272.912 194.735 272.784 194.479 272.528C194.239 272.272 194.119 271.904 194.119 271.424C194.119 270.624 194.327 269.888 194.743 269.216C195.159 268.544 195.783 268.008 196.615 267.608C197.447 267.192 198.463 266.984 199.663 266.984C201.103 266.984 202.231 267.344 203.047 268.064C203.863 268.784 204.271 269.784 204.271 271.064C204.271 272.28 203.735 273.552 202.663 274.88C201.607 276.208 200.079 277.384 198.079 278.408L203.575 278.312ZM217.964 278.312C218.3 278.312 218.556 278.424 218.732 278.648C218.908 278.872 218.996 279.152 218.996 279.488C218.996 279.904 218.86 280.28 218.588 280.616C218.332 280.936 217.98 281.096 217.532 281.096C216.764 281.096 215.62 281.04 214.1 280.928C213.796 280.912 213.236 280.88 212.42 280.832C211.604 280.784 210.964 280.76 210.5 280.76C210.292 280.76 209.988 280.832 209.588 280.976C209.508 280.992 209.348 281.032 209.108 281.096C208.884 281.16 208.692 281.192 208.532 281.192C208.276 281.192 208.06 281.08 207.884 280.856C207.724 280.616 207.644 280.264 207.644 279.8C207.644 279.288 207.764 278.896 208.004 278.624C208.244 278.336 208.62 278.08 209.132 277.856C210.22 277.376 211.244 276.768 212.204 276.032C213.18 275.28 213.956 274.472 214.532 273.608C215.124 272.744 215.42 271.92 215.42 271.136C215.42 270.512 215.276 270.056 214.988 269.768C214.716 269.464 214.276 269.312 213.668 269.312C212.964 269.312 212.396 269.504 211.964 269.888C211.548 270.272 211.34 270.808 211.34 271.496C211.34 272.44 210.868 272.912 209.924 272.912C209.476 272.912 209.124 272.784 208.868 272.528C208.628 272.272 208.508 271.904 208.508 271.424C208.508 270.624 208.716 269.888 209.132 269.216C209.548 268.544 210.172 268.008 211.004 267.608C211.836 267.192 212.852 266.984 214.052 266.984C215.492 266.984 216.62 267.344 217.436 268.064C218.252 268.784 218.66 269.784 218.66 271.064C218.66 272.28 218.124 273.552 217.052 274.88C215.996 276.208 214.468 277.384 212.468 278.408L217.964 278.312Z" fill="black"/>
<path d="M116.6 102.16C115.128 102.16 113.795 101.797 112.6 101.072C111.427 100.347 110.499 99.3013 109.816 97.936C109.133 96.5493 108.792 94.9173 108.792 93.04C108.792 89.7973 109.485 86.8 110.872 84.048C112.259 81.2747 114.307 79.056 117.016 77.392C119.725 75.7067 122.979 74.864 126.776 74.864C127.757 74.864 128.803 74.9387 129.912 75.088C131.043 75.2373 132.067 75.4613 132.984 75.76C133.581 75.9307 133.88 76.3573 133.88 77.04C133.88 77.5947 133.667 78.1173 133.24 78.608C132.835 79.0987 132.355 79.344 131.8 79.344C131.629 79.344 131.501 79.3333 131.416 79.312C130.307 79.056 129.357 78.8747 128.568 78.768C127.779 78.64 126.947 78.576 126.072 78.576C123.363 78.576 121.059 79.2373 119.16 80.56C117.261 81.8613 115.843 83.5893 114.904 85.744C113.965 87.8987 113.496 90.224 113.496 92.72C113.496 94.5333 113.848 95.9413 114.552 96.944C115.277 97.9253 116.216 98.416 117.368 98.416C118.669 98.416 119.811 97.8827 120.792 96.816C121.773 95.7493 122.669 94.0213 123.48 91.632C124.291 89.2427 125.091 86 125.88 81.904C126.008 81.3067 126.264 80.9013 126.648 80.688C127.032 80.4747 127.544 80.368 128.184 80.368C129.699 80.368 130.456 80.8587 130.456 81.84C130.456 82.0107 130.424 82.224 130.36 82.48C129.805 84.5493 129.293 86.8427 128.824 89.36C128.376 91.856 128.152 93.7547 128.152 95.056C128.152 96.208 128.323 97.0507 128.664 97.584C129.005 98.096 129.528 98.352 130.232 98.352C130.915 98.352 131.565 98.128 132.184 97.68C132.803 97.2107 133.581 96.4213 134.52 95.312C134.776 95.0133 135.064 94.864 135.384 94.864C135.661 94.864 135.875 94.992 136.024 95.248C136.195 95.504 136.28 95.856 136.28 96.304C136.28 97.136 136.077 97.7973 135.672 98.288C134.627 99.5467 133.603 100.507 132.6 101.168C131.597 101.829 130.371 102.16 128.92 102.16C127.427 102.16 126.221 101.733 125.304 100.88C124.387 100.005 123.811 98.7787 123.576 97.2C121.997 100.507 119.672 102.16 116.6 102.16ZM138.236 102.16C137.276 102.16 136.487 101.723 135.868 100.848C135.271 99.952 134.972 98.8427 134.972 97.52C134.972 95.92 135.079 94.4587 135.292 93.136C135.506 91.792 135.858 90.3733 136.348 88.88C136.562 88.24 136.86 87.7813 137.244 87.504C137.628 87.2267 138.236 87.088 139.068 87.088C139.538 87.088 139.858 87.1627 140.028 87.312C140.22 87.4613 140.316 87.6853 140.316 87.984C140.316 88.1547 140.199 88.7307 139.964 89.712C139.751 90.5013 139.58 91.216 139.452 91.856C139.026 94.096 138.812 95.5893 138.812 96.336C138.812 96.784 138.866 97.104 138.972 97.296C139.079 97.4667 139.25 97.552 139.484 97.552C139.804 97.552 140.199 97.232 140.668 96.592C141.159 95.952 141.671 94.9813 142.204 93.68C142.759 92.3787 143.292 90.7787 143.804 88.88C143.975 88.24 144.231 87.7813 144.572 87.504C144.935 87.2267 145.468 87.088 146.172 87.088C146.663 87.088 147.004 87.152 147.196 87.28C147.388 87.3867 147.484 87.6 147.484 87.92C147.484 88.4533 147.218 89.9147 146.684 92.304C146.087 95.0347 145.788 96.72 145.788 97.36C145.788 97.7653 145.874 98.0853 146.044 98.32C146.215 98.5333 146.439 98.64 146.716 98.64C147.143 98.64 147.644 98.384 148.22 97.872C148.818 97.3387 149.607 96.4853 150.588 95.312C150.844 95.0133 151.132 94.864 151.452 94.864C151.73 94.864 151.943 94.992 152.092 95.248C152.263 95.504 152.348 95.856 152.348 96.304C152.348 97.1573 152.146 97.8187 151.74 98.288C150.823 99.4187 149.831 100.347 148.764 101.072C147.719 101.797 146.524 102.16 145.18 102.16C144.156 102.16 143.399 101.765 142.908 100.976C142.439 100.187 142.204 99.0773 142.204 97.648C141.842 99.0987 141.298 100.219 140.572 101.008C139.847 101.776 139.068 102.16 138.236 102.16ZM165.306 94.864C165.583 94.864 165.796 94.992 165.946 95.248C166.116 95.504 166.202 95.856 166.202 96.304C166.202 97.1573 165.999 97.8187 165.594 98.288C164.676 99.4187 163.674 100.347 162.586 101.072C161.498 101.797 160.25 102.16 158.842 102.16C154.49 102.16 152.314 99.0987 152.314 92.976C152.314 92.0373 152.346 91.088 152.41 90.128H151.162C150.522 90.128 150.084 90.0107 149.85 89.776C149.636 89.5413 149.53 89.168 149.53 88.656C149.53 87.4613 150.01 86.864 150.97 86.864H152.794C153.156 84.5173 153.711 82.3733 154.458 80.432C155.204 78.4907 156.1 76.944 157.146 75.792C158.212 74.64 159.354 74.064 160.57 74.064C161.466 74.064 162.17 74.4587 162.682 75.248C163.194 76.0373 163.45 77.0293 163.45 78.224C163.45 81.5307 162.063 84.4107 159.29 86.864H162.874C163.215 86.864 163.46 86.9387 163.61 87.088C163.759 87.2373 163.834 87.5147 163.834 87.92C163.834 89.392 162.628 90.128 160.218 90.128H156.314C156.271 91.1947 156.25 92.0267 156.25 92.624C156.25 94.8427 156.506 96.4 157.018 97.296C157.551 98.192 158.383 98.64 159.514 98.64C160.431 98.64 161.242 98.3627 161.946 97.808C162.65 97.2533 163.482 96.4213 164.442 95.312C164.698 95.0133 164.986 94.864 165.306 94.864ZM159.706 77.136C159.386 77.136 159.023 77.5413 158.618 78.352C158.234 79.1413 157.86 80.2507 157.498 81.68C157.156 83.088 156.868 84.656 156.634 86.384C157.892 85.296 158.831 84.08 159.45 82.736C160.09 81.3707 160.41 80.1333 160.41 79.024C160.41 77.7653 160.175 77.136 159.706 77.136ZM182.636 94.864C182.913 94.864 183.127 94.992 183.276 95.248C183.447 95.504 183.532 95.856 183.532 96.304C183.532 97.1573 183.329 97.8187 182.924 98.288C181.943 99.4187 180.929 100.347 179.884 101.072C178.86 101.797 177.687 102.16 176.364 102.16C175.276 102.16 174.455 101.851 173.9 101.232C173.345 100.592 173.068 99.6747 173.068 98.48C173.068 97.8827 173.217 96.816 173.516 95.28C173.793 93.936 173.932 93.008 173.932 92.496C173.932 92.1547 173.815 91.984 173.58 91.984C173.303 91.984 172.908 92.3467 172.396 93.072C171.884 93.776 171.372 94.7147 170.86 95.888C170.348 97.0613 169.932 98.2987 169.612 99.6C169.207 101.307 168.204 102.16 166.604 102.16C165.964 102.16 165.537 101.936 165.324 101.488C165.132 101.019 165.036 100.187 165.036 98.992C165.036 98.3093 165.047 97.7653 165.068 97.36L165.1 94.8C165.1 91.5147 165.431 88.0907 166.092 84.528C166.775 80.9653 167.767 77.9787 169.068 75.568C170.391 73.136 171.969 71.92 173.804 71.92C174.785 71.92 175.575 72.3467 176.172 73.2C176.791 74.032 177.1 75.12 177.1 76.464C177.1 78.6187 176.471 80.8587 175.212 83.184C173.953 85.488 171.905 88.1867 169.068 91.28C169.004 92.3893 168.972 93.5307 168.972 94.704C169.676 92.8907 170.455 91.4187 171.308 90.288C172.183 89.136 173.036 88.3147 173.868 87.824C174.721 87.3333 175.5 87.088 176.204 87.088C177.591 87.088 178.284 87.7813 178.284 89.168C178.284 90 178.049 91.504 177.58 93.68C177.175 95.536 176.972 96.7627 176.972 97.36C176.972 98.2133 177.281 98.64 177.9 98.64C178.327 98.64 178.828 98.384 179.404 97.872C180.001 97.3387 180.791 96.4853 181.772 95.312C182.028 95.0133 182.316 94.864 182.636 94.864ZM173.132 75.088C172.748 75.088 172.321 75.6427 171.852 76.752C171.383 77.84 170.924 79.3227 170.476 81.2C170.049 83.056 169.697 85.0827 169.42 87.28C170.743 85.7227 171.831 84.0267 172.684 82.192C173.559 80.3573 173.996 78.6933 173.996 77.2C173.996 76.5173 173.921 75.9947 173.772 75.632C173.623 75.2693 173.409 75.088 173.132 75.088ZM196.491 94.864C196.768 94.864 196.981 94.992 197.131 95.248C197.301 95.504 197.387 95.856 197.387 96.304C197.387 97.1573 197.184 97.8187 196.779 98.288C195.989 99.248 194.869 100.133 193.419 100.944C191.989 101.755 190.453 102.16 188.811 102.16C186.571 102.16 184.832 101.552 183.595 100.336C182.357 99.12 181.739 97.456 181.739 95.344C181.739 93.872 182.048 92.5067 182.667 91.248C183.285 89.968 184.139 88.9547 185.227 88.208C186.336 87.4613 187.584 87.088 188.971 87.088C190.208 87.088 191.2 87.4613 191.947 88.208C192.693 88.9333 193.067 89.9253 193.067 91.184C193.067 92.656 192.533 93.9253 191.467 94.992C190.421 96.0373 188.64 96.8693 186.123 97.488C186.656 98.4693 187.669 98.96 189.163 98.96C190.123 98.96 191.211 98.6293 192.427 97.968C193.664 97.2853 194.731 96.4 195.627 95.312C195.883 95.0133 196.171 94.864 196.491 94.864ZM188.427 90.224C187.637 90.224 186.965 90.6827 186.411 91.6C185.877 92.5173 185.611 93.6267 185.611 94.928V94.992C186.869 94.6933 187.861 94.2453 188.587 93.648C189.312 93.0507 189.675 92.3573 189.675 91.568C189.675 91.1627 189.557 90.8427 189.323 90.608C189.109 90.352 188.811 90.224 188.427 90.224ZM198.333 102.16C197.522 102.16 196.946 101.733 196.605 100.88C196.285 100.027 196.125 98.6613 196.125 96.784C196.125 94.0107 196.52 91.376 197.309 88.88C197.501 88.2613 197.81 87.8133 198.237 87.536C198.685 87.2373 199.304 87.088 200.093 87.088C200.52 87.088 200.818 87.1413 200.989 87.248C201.16 87.3547 201.245 87.5573 201.245 87.856C201.245 88.1973 201.085 88.9653 200.765 90.16C200.552 91.0133 200.381 91.76 200.253 92.4C200.125 93.04 200.018 93.8293 199.933 94.768C200.637 92.9333 201.426 91.44 202.301 90.288C203.176 89.136 204.029 88.3147 204.861 87.824C205.714 87.3333 206.493 87.088 207.197 87.088C208.584 87.088 209.277 87.7813 209.277 89.168C209.277 90 209.042 91.504 208.573 93.68C208.168 95.536 207.965 96.7627 207.965 97.36C207.965 98.2133 208.274 98.64 208.893 98.64C209.32 98.64 209.821 98.384 210.397 97.872C210.994 97.3387 211.784 96.4853 212.765 95.312C213.021 95.0133 213.309 94.864 213.629 94.864C213.906 94.864 214.12 94.992 214.269 95.248C214.44 95.504 214.525 95.856 214.525 96.304C214.525 97.1573 214.322 97.8187 213.917 98.288C213 99.4187 212.008 100.347 210.941 101.072C209.896 101.797 208.701 102.16 207.357 102.16C206.269 102.16 205.448 101.851 204.893 101.232C204.338 100.592 204.061 99.6747 204.061 98.48C204.061 97.8827 204.21 96.816 204.509 95.28C204.786 93.936 204.925 93.008 204.925 92.496C204.925 92.1547 204.808 91.984 204.573 91.984C204.296 91.984 203.901 92.3467 203.389 93.072C202.898 93.776 202.386 94.7147 201.853 95.888C201.341 97.0613 200.925 98.2987 200.605 99.6C200.37 100.603 200.093 101.285 199.773 101.648C199.474 101.989 198.994 102.16 198.333 102.16ZM227.488 94.864C227.765 94.864 227.979 94.992 228.128 95.248C228.299 95.504 228.384 95.856 228.384 96.304C228.384 97.1573 228.181 97.8187 227.776 98.288C226.859 99.4187 225.856 100.347 224.768 101.072C223.68 101.797 222.432 102.16 221.024 102.16C216.672 102.16 214.496 99.0987 214.496 92.976C214.496 92.0373 214.528 91.088 214.592 90.128H213.344C212.704 90.128 212.267 90.0107 212.032 89.776C211.819 89.5413 211.712 89.168 211.712 88.656C211.712 87.4613 212.192 86.864 213.152 86.864H214.976C215.339 84.5173 215.893 82.3733 216.64 80.432C217.387 78.4907 218.283 76.944 219.328 75.792C220.395 74.64 221.536 74.064 222.752 74.064C223.648 74.064 224.352 74.4587 224.864 75.248C225.376 76.0373 225.632 77.0293 225.632 78.224C225.632 81.5307 224.245 84.4107 221.472 86.864H225.056C225.397 86.864 225.643 86.9387 225.792 87.088C225.941 87.2373 226.016 87.5147 226.016 87.92C226.016 89.392 224.811 90.128 222.4 90.128H218.496C218.453 91.1947 218.432 92.0267 218.432 92.624C218.432 94.8427 218.688 96.4 219.2 97.296C219.733 98.192 220.565 98.64 221.696 98.64C222.613 98.64 223.424 98.3627 224.128 97.808C224.832 97.2533 225.664 96.4213 226.624 95.312C226.88 95.0133 227.168 94.864 227.488 94.864ZM221.888 77.136C221.568 77.136 221.205 77.5413 220.8 78.352C220.416 79.1413 220.043 80.2507 219.68 81.68C219.339 83.088 219.051 84.656 218.816 86.384C220.075 85.296 221.013 84.08 221.632 82.736C222.272 81.3707 222.592 80.1333 222.592 79.024C222.592 77.7653 222.357 77.136 221.888 77.136ZM231.25 84.976C230.354 84.976 229.682 84.7733 229.234 84.368C228.786 83.9413 228.562 83.3547 228.562 82.608C228.562 81.8613 228.85 81.2427 229.426 80.752C230.024 80.24 230.76 79.984 231.634 79.984C232.424 79.984 233.064 80.176 233.554 80.56C234.045 80.944 234.29 81.488 234.29 82.192C234.29 83.0453 234.013 83.728 233.458 84.24C232.904 84.7307 232.168 84.976 231.25 84.976ZM230.994 102.16C229.608 102.16 228.594 101.669 227.954 100.688C227.336 99.7067 227.026 98.4053 227.026 96.784C227.026 95.824 227.144 94.5973 227.378 93.104C227.634 91.5893 227.954 90.1813 228.338 88.88C228.53 88.1973 228.786 87.728 229.106 87.472C229.426 87.216 229.938 87.088 230.642 87.088C231.73 87.088 232.274 87.4507 232.274 88.176C232.274 88.7093 232.072 89.9467 231.666 91.888C231.154 94.2347 230.898 95.824 230.898 96.656C230.898 97.296 230.984 97.7867 231.154 98.128C231.325 98.4693 231.613 98.64 232.018 98.64C232.402 98.64 232.882 98.3733 233.458 97.84C234.034 97.3067 234.802 96.464 235.762 95.312C236.018 95.0133 236.306 94.864 236.626 94.864C236.904 94.864 237.117 94.992 237.266 95.248C237.437 95.504 237.523 95.856 237.523 96.304C237.523 97.1573 237.32 97.8187 236.914 98.288C234.802 100.869 232.829 102.16 230.994 102.16ZM242.165 102.16C240.139 102.16 238.549 101.573 237.397 100.4C236.267 99.2053 235.701 97.6373 235.701 95.696C235.701 93.968 236.043 92.4533 236.725 91.152C237.408 89.8507 238.293 88.848 239.381 88.144C240.469 87.44 241.611 87.088 242.805 87.088C243.979 87.088 244.885 87.44 245.525 88.144C246.187 88.8267 246.517 89.712 246.517 90.8C246.517 91.696 246.315 92.4533 245.909 93.072C245.525 93.6907 245.013 94 244.373 94C243.968 94 243.637 93.904 243.381 93.712C243.147 93.52 243.029 93.2533 243.029 92.912C243.029 92.7627 243.051 92.592 243.093 92.4C243.136 92.208 243.168 92.0693 243.189 91.984C243.296 91.664 243.349 91.3653 243.349 91.088C243.349 90.8107 243.275 90.5973 243.125 90.448C242.997 90.2987 242.805 90.224 242.549 90.224C242.059 90.224 241.6 90.448 241.173 90.896C240.747 91.3227 240.405 91.9093 240.149 92.656C239.893 93.4027 239.765 94.224 239.765 95.12C239.765 96.336 240.011 97.264 240.501 97.904C241.013 98.5227 241.728 98.832 242.645 98.832C243.371 98.832 244.032 98.6187 244.629 98.192C245.248 97.7653 245.856 97.136 246.453 96.304C246.709 95.984 246.997 95.824 247.317 95.824C247.595 95.824 247.808 95.952 247.957 96.208C248.128 96.464 248.213 96.816 248.213 97.264C248.213 98.032 248.032 98.6933 247.669 99.248C247.093 100.144 246.336 100.859 245.397 101.392C244.459 101.904 243.381 102.16 242.165 102.16Z" fill="black"/>
</svg>
